<?xml version="1.0" encoding="utf-8"?>
<!-- Generator: Adobe Illustrator 23.0.6, SVG Export Plug-In . SVG Version: 6.00 Build 0)  -->
<svg version="1.1" id="Capa_1" xmlns="http://www.w3.org/2000/svg" xmlns:xlink="http://www.w3.org/1999/xlink" x="0px" y="0px"
	 viewBox="0 0 595.28 841.89" style="enable-background:new 0 0 595.28 841.89;" xml:space="preserve">
<style type="text/css">
	.st0{fill:#463C8C;stroke:#323387;stroke-miterlimit:10;}
	.st1{fill:#463C8C;stroke:#A85396;stroke-miterlimit:10;}
</style>
<g>
	<path class="st0" d="M312.98,290.19c2.28-4.51,4.8-8.63,7.29-12.93c0.99,0.55,1.72,0.92,2.41,1.36
		c14.4,9.04,28.77,18.12,43.19,27.13c7.1,4.43,12.24,10.32,14.42,18.55c3.56,13.45-1.96,26.82-13.16,33.29
		c-10.32,5.97-20.63,11.94-30.92,17.95c-29.68,17.33-59.34,34.69-89.01,52.03c-3.84,2.24-7.76,4.25-12.24,4.97
		c-12.63,2.04-22.7-2.18-30.28-12.37c-4.66-6.27-6.08-13.55-6.09-21.19c-0.01-17.2-0.01-34.4-0.01-51.6
		c0-29.22,0.02-58.44,0.02-87.66c0-7.17,1.48-13.93,5.51-20c7.93-11.93,23.3-17.16,37.93-10.4c1.42,0.66,2.81,1.41,4.13,2.25
		c10.92,6.94,21.82,13.9,32.71,20.87c0.84,0.53,1.59,1.2,2.51,1.89c-2.56,4.18-5.01,8.17-7.63,12.43c-1.15-0.58-2.15-0.98-3.03-1.54
		c-9.89-6.31-19.76-12.66-29.65-18.98c-1.63-1.04-3.28-2.09-5-2.97c-10.08-5.09-21.12,0.93-21.83,12.2
		c-0.49,7.83-0.3,15.71-0.31,23.56c-0.03,27.92,0,55.85-0.03,83.77c-0.01,12.48-0.08,24.96-0.13,37.44c-0.01,3,0.49,5.89,1.74,8.61
		c3.54,7.73,9.74,10.31,18.02,8.5c2.21-0.48,4.36-1.54,6.34-2.69c13.58-7.89,27.09-15.89,40.65-23.82
		c18.26-10.68,36.54-21.33,54.8-32.01c7.74-4.52,15.44-9.1,23.17-13.63c10.66-6.25,9.44-19.7,0.87-25.37
		c-6.16-4.08-12.46-7.94-18.7-11.9c-8.5-5.4-17.01-10.79-25.5-16.19C314.55,291.37,313.97,290.91,312.98,290.19z"/>
	<path class="st1" d="M298.09,296.55c-1.74,2.3-2.68,4.93-3.05,8.1c0.93-0.46,1.86-0.93,2.8-1.37c1.58-0.74,3.11-1.64,4.77-2.14
		c2.27-0.69,4.32-1.57,5.83-3.49c0.38-0.48,0.94-0.82,1.61-1.01c-1.1,2.23-2.7,3.94-5.05,4.89c-1.37,0.55-2.79,0.99-4.12,1.62
		c-0.99,0.46-1.96,1.06-2.79,1.76c-0.37,0.31-0.39,1.03-0.55,1.51c2.45,0.32,4.63,0.87,6.79,0.8c1.22-0.04,2.68-0.83,3.56-1.75
		c1.42-1.47,2.98-2.15,4.92-2.75c2.02-0.62,3.78-2.19,5.57-3.46c0.92-0.66,1.66-1.57,2.66-2.18c-0.98,2.71-3.36,4.14-5.5,6.06
		c2.98,0.99,5.84-0.62,8.71-0.03c-0.32,1.18-1.25,1.09-2.02,1.11c-2.58,0.06-5.17,0.05-7.75,0.07c-1.19,0.01-2.39,0-2.99,0
		c-2.49,1.73-4.51,3.14-6.63,4.6c1.29,0.11,2.68,0.23,4.43,0.38c-1.15,1.35-2.4,1.21-3.32,0.94c-3.05-0.92-5.59,0.13-8.57,1.92
		c1.53,0.37,2.72,0.58,3.86,0.94c6.45,2,12.61,0.69,18.59-1.81c3.26-1.36,6.46-2.16,9.91-1.09c0.57,0.18,1.09,0.49,1.64,0.74
		c-0.04,0.19-0.08,0.37-0.11,0.56c-1.92-0.22-3.86-0.73-5.76-0.59c-1.96,0.14-3.88,0.91-5.76,1.85c3.64,0.91,7.29,1.81,11.25,2.79
		c-1.99,0.71-3.66,0.48-5.34,0.01c-1.24-0.35-2.47-0.75-3.73-1.03c-4.36-0.98-10.65-0.29-14.94,1.76c1.33,0.42,2.34,0.75,3.36,1.06
		c2.19,0.66,4.45,1.17,6.57,2c1.91,0.75,3.7,1.72,5.85,0.54c-0.45,1.25-1.48,1.54-2.16,1.8c-4.89-1.49-9.53-2.9-14.27-4.34
		c-1.92,2.39-3.69,4.59-5.64,7.02c2.17,0.83,3.93,0.35,5.4-0.39c4.14-2.09,8.04-0.85,12,0.2c-0.01,0.19-0.02,0.38-0.03,0.57
		c-2.36-0.23-4.73-0.46-6.21-0.6c-3.32,1.52-5.85,2.69-8.62,3.96c-0.72-0.63-1.74-1.52-2.75-2.41c-1.82,0.8-2.69,2.14-3.47,3.62
		c3.44,1.4,6.91,0.58,10.28,0.55c3.31-0.03,6.61-0.82,10-0.94c-2.56,1.33-5.51,1.44-8.21,2.59c0.45,1.85,2.03,1.73,3.12,1.77
		c3.5,0.13,7.03,0.2,10.51-0.1c3.8-0.32,6.92,1.09,10.06,2.68c-0.04,0.18-0.07,0.37-0.11,0.55c-0.46-0.04-0.98,0.04-1.38-0.14
		c-3.34-1.52-6.69-2.15-10.47-1.67c-3.24,0.42-6.63-0.03-9.92-0.38c-2.3-0.24-2.35-0.52-3.56-2.83c-3.83-0.2-7.78-0.4-11.88-0.61
		c-1.33,1.67-2.62,3.3-4.2,5.29c1.21,0.05,1.9,0.1,2.59,0.11c1.29,0.02,2.64-0.22,3.87,0.06c3.02,0.67,5.79,0.11,8.63-0.9
		c2.67-0.95,6.22,0.64,7.64,3.5c-0.98-0.59-1.57-0.89-2.1-1.27c-2.04-1.47-4.21-1.84-6.53-0.77c-2.33,1.07-4.63,1.3-7.23,0.83
		c-2.5-0.45-5.15-0.1-7.95-0.1c-2.47,3.29-4.94,6.59-7.47,9.98c1.35,1.76,2.52,3.28,4.03,5.25c0.39-1.34,0.65-2.17,0.87-3
		c0.37-1.41,0.77-2.82,1.03-4.25c0.11-0.58-0.09-1.21-0.15-1.79c1.25-1.67,4.68-0.76,4.16-4.56c3.61,2.61,6.91-0.06,10.87,0.52
		c-0.99,0.55-1.44,0.95-1.95,1.06c-2.33,0.49-4.63,1.29-7.09,0.73c-0.4-0.09-0.92,0.32-1.56,0.57c0.84,1.5,2.14,1.66,3.36,1.87
		c1.18,0.2,2.39,0.31,3.59,0.35c1.89,0.07,3.64,0.53,5.21,1.61c1.37,0.95,2.94,1.19,4.52,0.94c5.36-0.87,10,0.9,14.43,3.65
		c1.14,0.71,2.37,1.29,3.43,2.35c-0.46-0.03-0.99,0.06-1.38-0.13c-2.08-0.99-4.13-2.06-6.19-3.1c-2.77-1.4-5.61-2.22-8.8-1.63
		c-2.52,0.47-4.92,0-7.18-1.37c-1.06-0.65-2.41-1.08-3.65-1.12c-2.7-0.09-5.33-0.39-7.9-1.23c-0.42-0.14-0.89-0.13-1.49,0.02
		c4.7,2.97,9,6.3,11.42,11.03c5.47,1.18,10.57,2.28,16.15,3.49c-0.8,0.23-1.21,0.44-1.63,0.46c-2.62,0.13-5.08-0.5-7.57-1.34
		c-2.14-0.72-4.47-0.87-7.25-1.36c-2.74-4.31-6.28-8.51-11.83-10.5c-0.83,0.87-0.49,1.59,0.27,2.31c3.22,3.03,3.13,7.29,4.11,11.15
		c0.01,0.04-0.13,0.12-0.49,0.45c-0.44-0.97-0.94-1.8-1.2-2.7c-0.33-1.15-0.44-2.36-0.69-3.53c-0.35-1.66-0.9-3.22-2.8-4.06
		c-1.18,2.12-1.62,4.47-1.69,6.79c-0.07,2.37,0.83,4.49,3.08,5.83c1.8,1.07,3.49,2.33,5.48,3.68c-1.84,0.06-1.97,0-5.98-2.63
		c-1.9-1.25-2.1-1.53-3.77-5.51c-2.48,4.16-2.91,8.3-0.37,12.92c-2.66-1.65-2.84-2.35-2.79-8.38c-1.87-2.81-3.54-5.3-5.38-8.06
		c-1.08,1.18-2.12,2.31-3.13,3.41c0.51,3.84,1.71,7.25,3.63,10.47c1.02,1.71,1.76,3.65,2.25,5.59c0.47,1.88,1.38,3.19,3.09,3.96
		c1.18,0.53,2.39,0.97,3.57,1.5c0.98,0.44,2.09,0.78,2.22,2.27c-2.21-0.98-4.33-1.9-6.43-2.85c-2-0.91-3.3-2.47-3.53-4.64
		c-0.26-2.52-1.57-4.48-3.11-6.88c-0.55,4.1-3.41,6.38-5.52,9.18c-0.43-1.21,0.24-2.04,0.92-2.66c4.57-4.21,3.26-9.07,1.75-14.55
		c-1.75,2.12-3.19,3.87-4.6,5.58c0.3,1.48,0.56,2.75,0.82,4.02c-0.18,0.06-0.35,0.13-0.53,0.19c-0.47-0.59-0.93-1.17-1.55-1.95
		c-1.25,6.05-3.39,11.34-7.28,15.88c-1.15,1.34-1.77,3.12-2.89,5.16c-0.14-0.92-0.42-1.48-0.25-1.8c0.87-1.62,1.66-3.34,2.83-4.72
		c3.07-3.62,4.37-8.01,5.72-12.42c-5.85,6.65-10.4,14.23-15.71,21.26c-5.31,7.04-10.45,14.21-15.97,21.14
		c8.46-17.2,17.82-33.92,25.48-51.63c-1.59-2.69-1.34-5.35-0.06-8.15c0.83-1.81,1.41-3.86-0.3-5.66
		c-3.18,1.55-7.02,5.56-10.28,10.73c-0.58-1.39,0.01-2.44,0.82-3.29c2.66-2.82,5.39-5.56,8.08-8.34c0.38-0.39,0.77-0.8,1.03-1.26
		c1.64-2.97,5.18-5.64,9.12-6.35c-1.29,0.94-2.58,1.87-3.96,2.87c0.63,2.1,1.24,4.16,1.86,6.22c1.95-4.26,3.9-8.52,6.05-13.2
		c-2.11-0.11-3.98-0.2-5.58-0.28c-1.2,0.74-2.08,1.48-3.09,1.85c-2.66,0.97-3.83,3.01-4.4,5.58c-0.08,0.35-0.15,0.7-0.26,1.22
		c-2.34-0.68-4.21,0.24-5.93,1.56c-1.6,1.24-3.38,1.92-5.39,1.84c-3.19-0.12-6.04,0.63-8.38,2.92c-0.23,0.23-0.63,0.29-1.06,0.48
		c0.83-2.11,3.56-4.46,6.13-4.38c4.11,0.13,7.54-1.16,10.81-3.43c0.79-0.55,1.88-0.67,2.97-1.04c0.26-0.72,0.54-1.48,0.9-2.45
		c-1.81-0.37-3.48-0.7-4.38-0.89c-3.51,1.1-6.29,1.96-9.69,3.03c1.95,0.53,3.33,1.23,4.68,1.17c1.34-0.06,2.66-0.87,4.2-1.44
		c-0.17,1.56-1.66,1.81-2.03,3.1c-1.38-0.27-2.55-0.44-3.69-0.74c-1.15-0.31-2.25-0.83-3.41-1.1c-1.08-0.25-2.32,0.36-3.86-0.7
		c4.31-1.38,8.17-2.62,12.52-4.02c-2.17-1.49-4.02-0.76-5.73-0.87c-1.84-0.12-3.7-0.07-5.55,0.02c-1.83,0.09-3.68,0.2-5.47,0.52
		c-1.81,0.32-3.61,0.81-5.33,1.43c-1.72,0.62-3.34,1.49-5.53,2.49c0.5-0.8,0.64-1.33,0.98-1.53c4.26-2.56,8.88-4.01,13.86-4.2
		c2.96-0.11,5.92-0.08,8.88-0.13c0.81-0.02,1.62-0.12,2.45-0.69c-2.16,0-4.31,0-6.91,0c1.84-2.58,3.37-4.73,4.99-7
		c-1.9-1.68-4.41-1.4-6.46-2.44c1.19-0.79,1.19-0.79,7.59,0.92c1.19-1.58,2.49-3.29,4.03-5.32c-3.61,0.43-6.57,2.59-9.93,0.79
		c1.92-0.28,3.91-0.36,5.76-0.9c1.74-0.51,3.79-0.23,5.64-1.95c-3.04-0.66-5.69-0.59-8.27-0.1c-3.92,0.74-7.74,0.11-11.57-0.42
		c-1.03-0.14-2.13-0.74-2.91-1.46c-3.08-2.83-6.76-4.44-10.66-5.7c-1.01-0.33-2-0.75-2.92-1.55c0.32-0.06,0.66-0.22,0.95-0.16
		c4.12,0.87,8.15,2.25,11.25,5.05c2.73,2.47,5.82,2.94,9.13,3.22c1.1,0.1,2.21,0.02,3.46-0.15c-4.76-2.09-9.04-4.68-10.94-10.37
		c0.64,0.34,1.15,0.42,1.26,0.68c2.11,4.81,6.33,7.02,10.85,8.86c0.42,0.17,0.78,0.48,0.9,0.56c3.68,0,7.09,0,10.61,0
		c0.69-0.92,1.34-1.78,2-2.65c-1.05-1.67-2.54-1.92-4.16-1.9c-2.4,0.03-4.81,0.08-7.21,0.06c-0.58,0-1.17-0.24-1.75-0.37
		c-0.02-0.2-0.03-0.39-0.05-0.59c0.5-0.14,1-0.39,1.5-0.39c2.31-0.01,4.61,0.08,6.92,0.06c0.7-0.01,1.4-0.23,2.59-0.45
		c-3.69-2.73-7.7-4.4-9.72-8.62c-1.46,0.08-3-0.12-4.34,0.31c-3.39,1.07-6.54-0.01-9.74-0.71c-0.13-0.03-0.22-0.27-0.52-0.66
		c1.64-0.65,3.05,0.46,4.5,0.35c1.63-0.12,3.28,0.09,4.92-0.01c1.55-0.1,3.08-0.44,4.65-0.68c0.62-3.52-3.14-3.25-4.3-5.21
		c3.11,0.08,5.31,1.55,5.63,4.14c0.37,2.95,2,4.89,4.24,6.5c1.34,0.96,2.71,1.88,4.19,2.9c0.63-3.28-1.96-5.28-2.83-7.84
		c0.23-0.12,0.45-0.24,0.68-0.36c1,1.51,2.01,3.02,3.04,4.58c2.1,0.58,4.22,1.16,6.58,1.82c0.45-0.72,0.92-1.46,1.23-1.97
		c-0.93-2.57-1.66-4.85-2.6-7.04c-0.49-1.16-1.22-2.28-2.06-3.23c-2.46-2.75-5.03-5.39-7.56-8.08c-0.51-0.54-1.11-1.06-0.33-2.05
		c2.06,2.18,4.13,4.31,6.14,6.5c2.62,2.86,5.29,5.71,5.91,9.6c0.49-2.86,1.09-5.76,1.44-8.69c0.17-1.43,0.04-2.96-0.24-4.38
		c-0.45-2.3-0.3-4.32,1.22-6.26c1.04-1.32,1.7-2.94,2.84-4.99c0.09,1.07,0.31,1.61,0.14,1.98c-0.5,1.09-1.01,2.21-1.76,3.13
		c-1.47,1.82-1.85,3.83-1.21,5.98c0.67,2.24,0.42,4.32-0.3,6.5c-0.85,2.58-0.8,5.24-0.05,8.24c0.69-0.62,1.28-1.01,1.68-1.54
		c1.67-2.21,3.33-4.44,4.89-6.73c0.5-0.74,0.67-1.72,1.06-2.78c0.51-0.32,1.51-0.65,2.03-1.34c4.99-6.66,9.93-13.35,14.81-20.08
		c1.75-2.42,1.85-5.36,2.1-8.21c0.12-1.38,0.03-2.78,0.13-4.16c0.14-1.95,0.43-2.43,1.74-3.55c-0.36,3.67-0.74,7.45-1.11,11.23
		c0.2,0.09,0.41,0.18,0.61,0.26c12.23-16.64,24.47-33.28,36.7-49.91c0.09,0.03,0.18,0.06,0.28,0.09c-0.16,0.53-0.26,1.09-0.5,1.57
		c-11.5,22.75-23.01,45.49-34.52,68.23c-1.18,2.32-1.21,2.58-0.42,5.7c1.03-0.73,2.01-1.41,2.99-2.1c0.11,0.13,0.23,0.26,0.34,0.39
		c-1.02,1.22-2.05,2.44-3.07,3.66c0,1.62,0,3.19,0,4.86c0.25-0.04,0.49-0.08,0.73-0.12C297.84,296.32,297.96,296.44,298.09,296.55z
		 M289.89,298.33c-2.84,5.13-5.39,10.15-7.74,15.76c4.1,0,7.74,0,11.42,0c0.57-2.44,1.15-4.89,1.88-8
		c-2.48,2.34-4.55,4.29-6.62,6.24c0.73-2.4,2.88-4.02,2.83-6.73C291.62,303.11,291.63,300.67,289.89,298.33z M283.9,360.46
		c0.99-2.45,3.14-4.25,2.77-7.07c-0.28,0.25-0.57,0.5-0.85,0.74c-1.46-1.56-2.92-3.13-4.41-4.72c-0.6,0.82-1.63,2.2-2.76,3.73
		C280.96,355.21,281.06,358.62,283.9,360.46z M260.02,344.33c1.29,2.5,1.91,4.85,0.88,7.36c-0.32,0.76-0.63,1.53-0.89,2.31
		c-0.46,1.41-0.52,2.78,0.53,4.32c1.52-3.14,2.94-6.02,4.3-8.92c0.21-0.46,0.24-1.09,0.15-1.6c-0.3-1.72-0.65-3.43-1.1-5.12
		c-0.14-0.53-0.66-0.96-1.23-1.74C261.64,342.24,260.82,343.28,260.02,344.33z M293.34,303.95c2.48-4.56,3.21-9.75,1.27-15.3
		c-1.49,2.9-2.98,5.8-4.08,7.92C291.72,299.67,292.58,301.94,293.34,303.95z M263.89,332.95c-2.84-0.13-5.68-0.27-8.52-0.37
		c-0.43-0.02-0.87,0.14-1.3,0.22c0.3,2.24,0.57,2.47,2.31,2.85C259.38,336.3,261.58,334.62,263.89,332.95z M258.71,308.42
		c1.46,0,2.54,0,3.73,0c0.3-0.47,0.63-0.98,1.17-1.82c-1.94-0.58-3.61-1.07-5.76-1.71C258.22,306.4,258.44,307.33,258.71,308.42z
		 M302.56,308.31c-3.9-1.16-5.08-0.61-6.29,2.78C298.3,310.2,300.27,309.33,302.56,308.31z"/>
	<path class="st1" d="M240.29,281.75c0.73,1,1.52,1.95,2.16,3c0.47,0.78,0.8,1.66,1.08,2.54c0.76,2.37,2.4,3.62,4.81,4
		c4.66,0.73,8.12,3.31,10.84,7.02c0.35,0.48,0.6,1.05,0.54,1.92c-0.54-0.51-1.16-0.97-1.62-1.55c-2.69-3.35-5.93-5.71-10.33-6.35
		c-2.78-0.4-4.55-2.11-5.48-4.84c-0.63-1.84-1.66-3.54-2.52-5.31C239.94,282.05,240.11,281.9,240.29,281.75z"/>
	<path class="st1" d="M297.71,296.21c2.85-7.58,8.25-13.47,13.04-19.78c0.41,1.41,0,2.38-1.04,3.32c-1.14,1.03-2.07,2.29-3.03,3.5
		c-1.14,1.43-2.26,2.88-3.31,4.38c-0.62,0.89-1.08,1.89-1.64,2.83c-1.21,2.04-2.43,4.07-3.65,6.1
		C297.96,296.44,297.84,296.32,297.71,296.21z"/>
	<path class="st1" d="M289.1,243.65c1.34,1.57,1.61,3.24,0.92,4.56c-2.17,4.11-1.26,8.23-0.58,12.42c0.2,1.23,0.03,2.53-0.36,3.93
		c-0.23-0.48-0.6-0.95-0.67-1.45c-0.39-2.73-0.81-5.47-0.99-8.22c-0.09-1.34,0.1-2.8,0.57-4.05c0.73-1.95,1.2-3.85,0.85-5.93
		C288.79,244.6,288.96,244.27,289.1,243.65z"/>
	<path class="st1" d="M237.79,333.12c-2.37-0.27-4.08-0.49-5.79-0.64c-2.47-0.22-4.94-0.43-7.42-0.55c-2.31-0.11-4.4-0.62-5.71-2.73
		c-0.29-0.47-0.31-1.11-0.27-1.84c1.61,3.13,4.31,3.23,7.28,3.32c3.48,0.1,6.94,0.75,10.4,1.23
		C236.63,331.96,236.93,332.41,237.79,333.12z"/>
	<path class="st1" d="M283.84,260.49c1.48,2.3,2.05,4.8,1,7.54c-1.03,2.7-2.18,5.36-3.35,8.22c-0.89-1-0.39-1.87-0.09-2.65
		c0.59-1.54,1.24-3.06,1.91-4.57c0.97-2.19,1.23-4.38,0.28-6.66c-0.23-0.55-0.23-1.18-0.33-1.78
		C283.45,260.55,283.64,260.52,283.84,260.49z"/>
	<path class="st1" d="M313.03,292.78c-2.11,1.71-4.68,1.49-6.46,2.82c-1.75,1.3-3.34,2.81-4.9,4.13
		C301.76,296.47,307.66,292.57,313.03,292.78z"/>
	<path class="st1" d="M235.32,327.96c3.17-2.31,6.53-1.62,9.65,0.94c-1.98,0.62-3.25-1.2-4.9-1.23
		C238.49,327.64,236.9,327.86,235.32,327.96z"/>
	<path class="st1" d="M318.77,268.37c-0.29-2.92,0.21-5.7,1.4-8.35C320.4,262.92,319.88,265.7,318.77,268.37z"/>
</g>
</svg>
